<svg version="1.0" xmlns="http://www.w3.org/2000/svg"
 width="1080.000000pt" height="1080.000000pt" viewBox="0 0 1080.000000 1080.000000"
 preserveAspectRatio="xMidYMid meet">
<g transform="translate(0.000000,1080.000000) scale(0.100000,-0.100000)"
fill="#000000" stroke="none">
<path d="M4850 8334 c-14 -3 -70 -11 -125 -20 -206 -31 -499 -111 -700 -190
-598 -237 -1064 -691 -1342 -1308 -73 -160 -183 -482 -183 -532 0 -10 13 -14
46 -14 25 0 54 -4 64 -10 22 -12 40 -61 33 -90 -6 -21 -6 -21 -17 2 -13 26
-71 42 -100 26 -10 -6 -28 -21 -40 -35 l-21 -25 0 34 c0 32 -1 33 -40 33 l-40
0 -62 -170 c-72 -198 -81 -265 -33 -265 22 0 38 22 114 158 77 137 150 222
112 130 -9 -20 -22 -68 -30 -107 -17 -83 -8 -121 29 -121 24 0 44 20 94 95 35
52 110 135 122 135 3 0 1 -18 -4 -40 -6 -22 -16 -40 -22 -40 -17 0 -66 -56
-119 -137 -26 -40 -54 -77 -62 -84 -20 -17 -62 -14 -83 5 -9 9 -21 16 -24 16
-4 0 -7 -105 -7 -234 0 -342 36 -562 144 -888 132 -396 344 -739 627 -1014
151 -146 293 -253 507 -383 201 -121 523 -246 827 -321 271 -66 324 -73 654
-77 278 -4 316 -3 440 17 429 70 814 229 1138 472 109 81 231 189 231 203 0 6
-23 30 -51 54 -29 24 -82 72 -119 107 -63 60 -88 75 -88 56 0 -17 -240 -187
-362 -257 -156 -89 -301 -153 -478 -211 -185 -61 -340 -91 -568 -111 -178 -15
-206 -15 -385 0 -293 25 -485 72 -727 179 -242 107 -461 252 -688 455 l-53 48
60 -3 61 -4 0 249 c0 136 3 278 7 316 l6 67 256 0 256 0 -3 -315 -3 -315 86 0
85 0 0 368 c0 202 3 539 7 748 l6 381 -84 5 c-46 3 -87 3 -91 -1 -4 -3 -8
-148 -8 -321 -1 -173 -4 -327 -7 -342 l-5 -28 -249 0 -249 0 -2 348 -3 347
-85 3 -85 3 3 -731 2 -731 -53 58 c-99 108 -124 138 -199 243 -238 333 -377
662 -439 1035 -18 110 -21 161 -18 330 2 110 1 205 -3 211 -4 5 -3 32 1 60 5
27 9 38 10 24 2 -48 27 -70 79 -70 39 0 56 7 99 39 l52 40 -6 -33 c-6 -39 15
-60 62 -60 42 0 55 11 132 117 36 48 66 87 68 87 3 0 2 -29 -2 -65 -5 -59 -4
-68 17 -90 46 -49 56 -45 297 142 l82 63 -16 -37 c-40 -94 -73 -201 -73 -235
0 -31 5 -40 30 -53 16 -8 31 -15 34 -15 4 0 48 113 61 159 7 22 8 21 25 -16
19 -44 63 -83 92 -83 24 0 87 32 162 83 32 22 56 35 52 29 -8 -13 57 -70 90
-78 60 -15 162 26 308 123 43 29 80 53 82 53 1 0 -1 -12 -5 -27 -12 -42 5 -87
44 -122 20 -17 40 -31 45 -31 28 0 70 28 132 88 60 58 69 63 63 39 -4 -15 -4
-43 -1 -62 7 -37 50 -89 69 -82 7 2 17 41 24 88 7 46 24 118 38 159 46 130 44
157 -11 174 -16 5 -27 -3 -54 -41 -47 -64 -257 -279 -266 -271 -3 4 14 59 40
123 25 63 46 121 46 129 0 20 -20 33 -63 41 -30 6 -38 4 -35 -6 1 -8 -4 -33
-11 -57 -14 -42 -18 -44 -175 -127 -167 -86 -243 -121 -252 -113 -2 3 2 18 11
34 8 16 15 34 15 41 0 7 35 30 78 53 87 45 205 137 210 163 2 9 -9 28 -25 42
-23 20 -39 24 -83 24 -70 0 -112 -29 -186 -132 -47 -65 -69 -84 -176 -154
-152 -99 -165 -104 -178 -66 -5 15 -16 40 -24 55 l-15 28 87 53 c48 29 106 64
130 77 47 27 52 42 20 64 -34 24 -54 20 -134 -29 -41 -24 -74 -43 -74 -42 0 1
23 61 51 132 63 159 84 228 76 249 -5 12 -20 16 -62 16 l-56 0 6 -32 c6 -35
-23 -136 -68 -238 -24 -53 -32 -61 -198 -176 -96 -66 -179 -123 -185 -127 -6
-4 -4 26 7 76 31 137 21 176 -38 164 -17 -3 -34 0 -44 9 -31 28 -121 -6 -140
-52 -2 -5 -42 -39 -89 -74 -47 -35 -109 -83 -139 -107 -29 -24 -55 -42 -57
-40 -2 1 3 25 11 52 8 26 15 70 15 96 0 40 -4 51 -31 73 -48 40 -81 35 -144
-24 l-53 -51 17 46 c8 25 20 45 25 45 6 0 22 12 38 27 21 20 40 27 83 31 37 3
55 9 55 18 0 25 63 201 112 314 174 395 421 741 697 971 200 168 383 270 634
353 683 228 1331 199 1922 -88 180 -87 431 -250 532 -345 12 -12 24 -21 26
-21 6 0 222 220 225 230 8 23 -323 278 -478 367 -281 162 -553 261 -895 325
-93 18 -156 21 -410 24 -165 1 -311 0 -325 -2z"/>
<path d="M6934 6476 c-3 -7 -4 -17 -3 -22 2 -5 -5 -34 -14 -65 l-17 -56 -60
-12 c-33 -7 -64 -9 -70 -6 -5 3 -20 3 -33 0 -21 -6 -24 -13 -24 -46 0 -33 3
-40 24 -45 14 -4 47 -4 74 -1 48 6 50 5 43 -16 -4 -12 -15 -52 -23 -90 l-16
-67 -114 -100 c-63 -55 -116 -98 -118 -96 -4 4 19 113 40 191 8 27 12 58 9 68
-8 30 -47 43 -92 30 l-39 -10 16 31 c8 17 21 38 28 46 7 8 15 27 19 42 5 24 3
28 -19 34 -14 3 -32 4 -40 0 -8 -3 -15 -1 -15 4 0 6 -6 10 -12 9 -15 0 -108
-140 -108 -161 0 -8 -21 -30 -47 -50 -70 -52 -254 -170 -259 -166 -2 3 3 36
11 74 20 93 19 150 -1 158 -35 14 -55 3 -107 -56 -104 -120 -111 -126 -72 -68
21 30 54 70 74 88 l36 32 -24 19 c-23 17 -27 18 -68 4 -25 -9 -47 -23 -50 -32
-4 -9 -23 -45 -43 -81 -20 -36 -56 -100 -79 -142 l-42 -78 25 -25 c50 -50 89
-31 181 92 32 43 62 81 65 86 3 4 6 -25 6 -64 -1 -66 1 -73 25 -91 39 -30 71
-15 233 106 130 98 140 104 160 90 26 -18 57 -18 102 1 l36 15 -7 -28 c-17
-67 -37 -161 -42 -201 -7 -52 10 -71 63 -71 37 0 73 28 176 135 l67 70 -20
-89 c-22 -98 -20 -115 19 -151 54 -50 86 -35 285 136 83 71 152 127 154 126 1
-2 -2 -19 -7 -38 -6 -18 -10 -50 -10 -71 0 -31 5 -40 36 -58 26 -17 45 -21 74
-17 38 5 122 56 194 119 l38 34 35 -35 c32 -32 37 -33 83 -28 48 6 50 5 39
-14 -5 -11 -38 -55 -72 -97 -79 -98 -156 -214 -158 -238 -4 -38 1 -71 14 -88
33 -45 109 43 212 249 39 78 65 115 121 170 79 79 171 147 160 120 -11 -31
-36 -159 -36 -190 0 -41 34 -93 66 -101 40 -10 75 12 247 156 200 167 287 254
287 286 0 13 -3 24 -6 24 -13 0 -107 -72 -264 -200 -176 -145 -234 -190 -242
-190 -3 0 0 26 8 58 8 31 27 116 44 187 16 72 38 155 48 185 17 48 23 56 56
67 21 7 92 18 159 24 157 13 167 15 167 38 0 39 -23 44 -172 37 -133 -7 -140
-6 -133 11 5 10 10 33 13 51 4 29 1 33 -33 48 -45 18 -67 12 -63 -18 2 -13 -6
-46 -16 -75 -19 -50 -21 -53 -69 -63 -27 -6 -64 -8 -81 -5 -44 8 -57 -4 -49
-48 7 -43 28 -53 94 -44 35 5 40 3 34 -11 -4 -10 -10 -36 -14 -60 -9 -44 -12
-47 -120 -129 -45 -34 -59 -39 -75 -31 -26 14 -97 3 -147 -23 -23 -11 -43 -18
-46 -15 -3 3 2 26 11 51 13 32 23 45 37 45 11 0 40 21 65 47 94 97 85 173 -19
156 -29 -4 -41 -15 -68 -57 -72 -112 -330 -339 -356 -312 -3 3 9 64 27 135 18
72 30 138 26 146 -13 34 -96 4 -96 -35 0 -24 -390 -350 -419 -350 -4 0 10 69
31 153 22 83 50 190 62 237 l21 85 45 6 c232 35 267 42 292 60 l28 19 6 -27
c14 -54 43 -113 57 -113 26 0 34 23 39 102 5 71 3 78 -15 84 -23 7 -97 -15
-97 -29 0 -5 -7 -4 -15 3 -12 10 -49 12 -154 7 -135 -6 -139 -6 -134 13 3 11
9 23 14 26 5 3 9 16 9 29 0 40 -93 76 -106 41z"/>
<path d="M4932 6173 c-6 -32 -22 -110 -36 -173 -14 -63 -32 -147 -40 -185 -9
-39 -22 -89 -29 -110 -8 -22 -20 -71 -27 -110 -6 -38 -16 -80 -21 -93 -5 -13
-9 -34 -9 -48 0 -23 3 -25 42 -22 l42 3 47 140 c26 77 55 168 65 203 22 80 36
89 33 20 -2 -29 2 -63 9 -74 13 -24 62 -47 88 -42 33 6 151 259 194 417 l21
74 -22 23 c-38 41 -120 23 -188 -40 l-43 -41 6 30 c8 36 -22 75 -57 75 -12 0
-32 3 -43 6 -19 5 -23 0 -32 -53z m232 -130 c-37 -118 -66 -193 -74 -193 -4 0
-10 9 -13 19 -3 13 -17 22 -40 26 -51 10 -40 34 62 138 47 48 86 87 87 87 1 0
-9 -35 -22 -77z"/>
<path d="M4875 5273 c-26 -71 -59 -157 -72 -193 -13 -36 -30 -83 -38 -105 -7
-22 -25 -71 -40 -110 -15 -38 -33 -88 -40 -110 -8 -22 -28 -76 -45 -120 -17
-44 -37 -98 -45 -120 -18 -53 -87 -243 -120 -330 -59 -157 -108 -296 -104
-299 2 -2 38 -7 81 -11 l76 -7 16 34 c8 18 26 62 40 98 14 36 50 126 81 200
31 74 62 150 68 168 l10 32 211 -6 c116 -4 214 -9 217 -13 4 -3 13 -26 22 -51
8 -25 24 -67 35 -95 11 -27 47 -122 80 -210 l61 -160 68 -3 69 -3 13 36 c13
37 13 37 -54 205 -7 19 -32 85 -55 145 -23 61 -60 157 -82 215 -22 58 -51 132
-63 165 -13 33 -37 96 -54 140 -16 44 -46 123 -66 175 -20 52 -42 111 -50 130
-8 19 -25 64 -39 100 -81 216 -88 230 -111 230 -20 0 -29 -15 -70 -127z m114
-378 c49 -120 67 -162 105 -252 l34 -83 -71 0 c-40 0 -115 3 -168 6 l-96 7 34
91 c19 50 43 116 54 146 12 30 29 77 40 104 10 27 19 56 19 64 0 26 14 2 49
-83z"/>
<path d="M5636 5109 c-3 -156 -8 -496 -10 -755 l-5 -472 31 -6 c17 -3 56 -6
87 -6 l56 0 -3 245 -3 245 79 0 c44 0 93 -3 108 -6 32 -6 31 -5 232 -324 l98
-155 79 0 80 0 3 32 c3 33 -10 56 -210 372 l-79 125 57 32 c115 65 196 153
244 264 48 111 26 301 -51 436 -36 64 -121 144 -188 178 -112 57 -160 66 -387
73 l-212 6 -6 -284z m514 71 c135 -68 200 -169 200 -310 0 -152 -67 -252 -215
-321 -55 -25 -72 -28 -202 -31 l-143 -4 0 348 0 348 150 0 c147 0 152 -1 210
-30z"/>
<path d="M6628 5378 l-38 -10 0 -753 0 -753 248 -7 c277 -9 443 2 470 28 18
19 20 69 4 110 l-12 27 -270 0 -271 0 7 141 c4 77 7 376 8 664 1 501 0 524
-18 544 -21 23 -64 26 -128 9z"/>
<path d="M8288 5382 c-9 -4 -25 -18 -35 -32 -18 -26 -27 -40 -70 -119 -14 -25
-29 -50 -33 -56 -4 -5 -69 -118 -145 -250 -75 -132 -142 -246 -150 -253 -10
-12 -22 2 -67 80 -30 51 -71 120 -91 153 -20 33 -83 143 -140 245 -58 102
-111 193 -119 203 -8 12 -30 21 -58 24 -36 4 -49 1 -67 -17 -13 -11 -23 -33
-23 -48 0 -23 58 -134 139 -264 9 -14 44 -75 79 -135 34 -59 93 -157 130 -218
37 -60 82 -136 100 -168 l33 -58 -6 -295 c-6 -277 -5 -295 12 -302 19 -7 130
-8 138 0 3 2 7 141 11 309 l6 304 33 55 c18 30 90 150 160 265 231 378 295
494 295 536 0 24 -5 39 -16 43 -20 8 -94 6 -116 -2z"/>
</g>
</svg>
